<svg width="51" height="51" viewBox="0 0 51 51" fill="none" xmlns="http://www.w3.org/2000/svg">
<rect width="51" height="51" rx="5" fill="#FFD400"/>
<path d="M23.1713 40.7477C22.5939 40.5914 22.0104 40.4343 21.433 40.278C21.324 40.2452 21.2151 40.2124 21.1069 40.1736C20.7283 40.0379 20.5447 39.7155 20.6567 39.3962C20.7757 39.0718 21.1144 38.9409 21.4994 39.0289C22.4757 39.2629 23.4533 39.5821 24.4472 39.6847C30.2684 40.2815 35.0186 38.3403 38.3199 33.7196C41.699 28.9877 41.7925 23.9133 39.0494 18.7631C39.0049 18.6721 38.9464 18.5913 38.9203 18.5514C38.4451 18.5728 38.0006 18.6471 37.5667 18.5951C36.4004 18.4633 35.4896 17.5513 35.3257 16.4232C35.1655 15.3139 35.7884 14.2365 36.8442 13.7822C37.9071 13.3228 39.171 13.6195 39.9287 14.4989C40.6756 15.3646 40.7555 16.603 40.0908 17.5229C39.9359 17.7392 39.9423 17.8798 40.0706 18.0975C41.614 20.7291 42.307 23.5506 42.1504 26.5563C42.1446 26.6467 42.1581 26.7336 42.1655 26.8196C42.0832 27.4346 42.0001 28.0556 41.9178 28.6705C41.7285 29.332 41.557 30.0019 41.3368 30.6591C39.3462 36.5918 33.4162 40.8547 26.9518 41.0167C26.3513 41.0335 25.7493 41.0137 25.1512 41.0127C24.4891 40.9241 23.8333 40.8363 23.1713 40.7477ZM37.7621 17.4179C38.5115 17.5121 39.1907 17.0013 39.2866 16.2848C39.3825 15.5684 38.8491 14.8953 38.1075 14.79C37.3526 14.6889 36.6602 15.204 36.5681 15.9392C36.4776 16.6625 37.0126 17.3236 37.7621 17.4179Z" fill="#251C1C"/>
<path d="M29.2359 10.4409C29.8144 10.5973 30.3992 10.7546 30.9777 10.9111C31.0753 10.9363 31.1775 10.9743 31.2742 11.0055C31.6652 11.149 31.8284 11.4383 31.7193 11.7823C31.6117 12.1143 31.2794 12.2401 30.8882 12.1452C29.879 11.9067 28.8707 11.6138 27.8408 11.482C22.0724 10.7343 16.1727 13.5613 13.3783 18.4572C10.7478 23.0712 10.7903 27.7511 13.3425 32.4448C13.3779 32.5103 13.4141 32.5698 13.4503 32.6294C13.4603 32.649 13.4773 32.6634 13.4557 32.6362C13.9318 32.6148 14.3771 32.5407 14.8057 32.592C15.9681 32.7232 16.8925 33.6432 17.0524 34.7587C17.2131 35.8682 16.5885 36.9517 15.5315 37.3998C14.4419 37.8558 13.2057 37.5687 12.4463 36.6891C11.6977 35.823 11.6182 34.5785 12.2832 33.6645C12.4383 33.4483 12.4257 33.3068 12.2971 33.089C10.7625 30.4583 10.0674 27.6361 10.2229 24.636C10.2286 24.5456 10.215 24.4587 10.2084 24.3666C10.2907 23.7516 10.3739 23.1305 10.4562 22.5155C10.4852 22.4404 10.5141 22.3652 10.5369 22.2893C10.7366 21.5987 10.9007 20.8913 11.1492 20.2134C13.2128 14.4599 19.1256 10.3095 25.448 10.171C26.049 10.1603 26.6529 10.1742 27.2522 10.1754C27.9155 10.2642 28.5726 10.3521 29.2359 10.4409ZM14.6412 33.7735C13.8919 33.6671 13.2007 34.1642 13.0916 34.8851C12.9817 35.6119 13.5271 36.2988 14.2834 36.4C15.0281 36.4936 15.7139 35.9898 15.8168 35.268C15.9135 34.5455 15.3905 33.8798 14.6412 33.7735Z" fill="#251C1C"/>
<path d="M18.2477 19.9719C18.0749 19.7566 17.8405 19.4834 17.6201 19.1998C17.3084 18.7985 17.3508 18.4819 17.7641 18.1714C18.7245 17.4445 19.6912 16.7185 20.664 15.9932C21.0835 15.6836 21.3984 15.732 21.727 16.1479C21.9321 16.4047 22.1363 16.6676 22.3414 16.9244C22.3521 16.9382 22.3761 16.9476 22.3298 16.9166C23.1303 16.7262 23.8911 16.5491 24.6412 16.3582C24.7266 16.3324 24.8366 16.2169 24.8542 16.1325C24.9205 15.8252 24.9381 15.5052 24.9929 15.1902C25.0574 14.8021 25.319 14.5892 25.7152 14.6422C26.9849 14.806 28.2538 14.9758 29.5218 15.1517C29.9304 15.2064 30.1268 15.4806 30.0845 15.8903C30.05 16.1956 30.0092 16.5001 29.9623 16.8037C29.9357 16.9552 29.9755 17.0349 30.1291 17.1112C30.8058 17.4683 31.474 17.8429 32.2193 18.2526C32.4311 18.0826 32.7075 17.853 32.9947 17.6373C33.401 17.3322 33.729 17.3761 34.0416 17.7712C34.7887 18.7329 35.5357 19.6945 36.2828 20.6561C36.5838 21.0435 36.5344 21.3655 36.1421 21.6601C35.855 21.8758 35.557 22.0777 35.3275 22.2392C35.531 23.0722 35.7134 23.8281 35.9097 24.5735C35.9309 24.6507 36.0511 24.7412 36.1378 24.7528C36.4448 24.8125 36.7567 24.8356 37.0654 24.8831C37.4979 24.9472 37.7083 25.2109 37.6513 25.6372C37.4928 26.8682 37.329 28.0922 37.1582 29.3215C37.1003 29.7539 36.8411 29.9486 36.4 29.9019C36.0897 29.8666 35.7827 29.8069 35.4699 29.7899C35.3763 29.7835 35.2349 29.8514 35.1871 29.9256C34.8025 30.587 34.4294 31.2561 34.0078 32.0055C34.1814 32.2147 34.4228 32.4826 34.6431 32.7662C34.9441 33.1537 34.9009 33.4764 34.5149 33.7719C33.5412 34.5032 32.5675 35.2346 31.5939 35.9659C31.1876 36.2711 30.8666 36.2219 30.5478 35.8259C30.3705 35.5976 30.2009 35.3579 30.0087 35.1463C29.948 35.0823 29.8027 35.0381 29.712 35.0569C29.0154 35.2241 28.3235 35.4042 27.636 35.5974C27.5445 35.6223 27.4354 35.7317 27.4178 35.8161C27.3514 36.1234 27.3276 36.4425 27.279 36.7584C27.2145 37.1465 26.9537 37.3533 26.5567 37.3064C25.287 37.1426 24.0182 36.9728 22.7501 36.7969C22.3416 36.7422 22.1451 36.468 22.1874 36.0583C22.2219 35.753 22.2813 35.451 22.3034 35.144C22.3087 35.0579 22.2577 34.9209 22.1875 34.8805C21.5016 34.4974 20.8079 34.1256 20.0378 33.7126C19.826 33.8826 19.5488 34.1183 19.2616 34.334C18.8693 34.6286 18.5483 34.5795 18.2411 34.1912C17.4878 33.2287 16.7399 32.2732 15.9999 31.3063C15.6935 30.912 15.7429 30.59 16.15 30.2788C16.4302 30.0683 16.7203 29.8778 16.9428 29.7216C16.7393 28.8885 16.5569 28.1327 16.3605 27.3873C16.3394 27.3101 16.2192 27.2196 16.1333 27.2019C15.8263 27.1422 15.5144 27.1191 15.2057 27.0716C14.767 27.0067 14.562 26.7499 14.619 26.3236C14.7775 25.0926 14.9413 23.8686 15.1121 22.6392C15.1708 22.2008 15.4424 22.0078 15.895 22.0622C16.2053 22.0975 16.5124 22.1572 16.8251 22.1742C16.9064 22.1789 17.0354 22.1094 17.0761 22.0405C17.4662 21.386 17.8339 20.7099 18.2477 19.9719ZM15.9435 25.9367C16.1292 25.9616 16.284 25.9823 16.4387 26.003C16.5934 26.0237 16.749 26.0383 16.9029 26.0651C17.3098 26.132 17.4937 26.3116 17.5352 26.7077C17.6363 27.6944 17.8878 28.6393 18.3093 29.5388C18.4712 29.8828 18.399 30.1397 18.09 30.3773C17.837 30.5728 17.5687 30.7414 17.3181 30.9187C17.8825 31.6451 18.4084 32.3291 18.9773 33.0686C19.1977 32.8811 19.4329 32.677 19.6781 32.4929C20.0291 32.2237 20.287 32.2272 20.6328 32.5153C21.3822 33.1301 22.22 33.6017 23.1315 33.9469C23.5509 34.1084 23.6804 34.3179 23.6287 34.7511C23.595 35.0503 23.548 35.354 23.5065 35.6646C24.3916 35.783 25.2458 35.8973 26.0876 36.01C26.104 35.9812 26.1251 35.9654 26.1275 35.9472C26.172 35.6618 26.2095 35.3816 26.2478 35.0954C26.3102 34.6761 26.4919 34.4958 26.9134 34.453C27.903 34.3561 28.8486 34.1169 29.7596 33.712C30.1348 33.5452 30.3907 33.6105 30.6371 33.9348C30.8298 34.1899 31.0023 34.4548 31.1611 34.6806C31.9114 34.1115 32.5986 33.5898 33.3201 33.0479C33.1465 32.8387 32.9382 32.6063 32.7509 32.358C32.4937 32.0199 32.4962 31.766 32.7663 31.4426C33.3885 30.7015 33.8632 29.8848 34.2153 28.9959C34.3878 28.554 34.5923 28.4388 35.0821 28.4982C35.3792 28.5379 35.6701 28.5769 35.9672 28.6166C36.0854 27.7336 36.197 26.8993 36.3128 26.0346C35.9785 25.9898 35.662 25.9537 35.341 25.9045C34.9518 25.8462 34.7618 25.6658 34.7248 25.2827C34.6238 24.296 34.3722 23.3511 33.9577 22.4464C33.7921 22.0833 33.8581 21.8255 34.1803 21.5835C34.4325 21.3941 34.7078 21.2202 34.9575 21.049C34.3816 20.3149 33.8487 19.6361 33.2836 18.9158C33.0648 19.091 32.8295 19.2951 32.5844 19.4793C32.2271 19.7476 31.9825 19.7396 31.6297 19.4569C30.8849 18.8551 30.0664 18.3798 29.1603 18.0416C28.6983 17.8682 28.5821 17.6542 28.6419 17.1601C28.6802 16.8739 28.7193 16.5816 28.7568 16.3015C27.8531 16.1805 27.0051 16.067 26.1571 15.9535C26.139 15.9945 26.1304 16.012 26.128 16.0302C26.0913 16.3043 26.0546 16.5783 26.0117 16.8515C25.9444 17.3074 25.7776 17.4711 25.3111 17.5202C24.3409 17.6135 23.4139 17.8552 22.523 18.2505C22.1207 18.4322 21.8772 18.3686 21.6039 18.0097C21.4158 17.7675 21.2487 17.5096 21.0899 17.2838C20.3474 17.8415 19.6547 18.3563 18.9254 18.9096C19.1151 19.1395 19.3226 19.3781 19.5215 19.634C19.7687 19.9523 19.7655 20.2122 19.5032 20.5242C18.8732 21.2768 18.3828 22.1162 18.0275 23.0294C17.8825 23.4067 17.6578 23.5317 17.2547 23.4839C16.9382 23.4477 16.6233 23.3994 16.2891 23.3547C16.1725 24.2255 16.0601 25.0659 15.9435 25.9367Z" fill="#251C1C"/>
<path d="M18.9802 36.1372C19.314 36.1874 19.5693 36.4944 19.5105 36.7928C19.4523 37.0856 19.1436 37.2726 18.8098 37.2224C18.4636 37.1705 18.2247 36.8824 18.2843 36.5785C18.3362 36.2848 18.6526 36.0878 18.9802 36.1372Z" fill="#251C1C"/>
<path d="M33.0127 13.1275C33.0653 12.8284 33.3679 12.6406 33.7071 12.6971C34.0409 12.7473 34.2806 13.03 34.2348 13.3245C34.1876 13.63 33.8512 13.8355 33.5126 13.7735C33.1741 13.7115 32.9593 13.4322 33.0127 13.1275Z" fill="#251C1C"/>
<path d="M25.4711 30.9424C22.639 30.5633 20.623 27.93 21.0023 25.0962C21.3815 22.2625 24.0136 20.2449 26.8519 20.6247C29.684 21.0038 31.7 23.6371 31.3207 26.4709C30.9415 29.3046 28.3102 31.316 25.4711 30.9424ZM22.249 25.2695C21.9679 27.4175 23.5039 29.4147 25.6444 29.6949C27.7911 29.9758 29.7874 28.4386 30.0677 26.2968C30.3489 24.1488 28.8129 22.1515 26.6724 21.8714C24.5319 21.5913 22.5293 23.1277 22.249 25.2695Z" fill="#251C1C"/>
</svg>
