<svg width="51" height="51" viewBox="0 0 51 51" fill="none" xmlns="http://www.w3.org/2000/svg">
<rect width="51" height="51" rx="5" fill="#FFD400"/>
<path d="M28.2957 17.9826V14.859C30.429 15.368 32.2261 16.3514 33.687 17.8091C35.1478 19.2668 36.1333 21.1294 36.6435 23.397H33.513C32.7246 20.6667 30.9855 18.8619 28.2957 17.9826ZM23.6348 17.9826V14.859C18.9507 15.7845 16.0986 18.6305 15.0783 23.397H18.2087C18.9043 20.7592 20.713 18.9544 23.6348 17.9826ZM18.2087 27.7007H15.0783C15.542 30.3384 16.458 32.3283 17.8261 33.6703C19.1942 35.0123 21.1304 35.9378 23.6348 36.4469V33.3232C22.429 32.953 21.3159 32.2357 20.2957 31.1714C19.2754 30.107 18.5797 28.9501 18.2087 27.7007ZM39.9826 25.6876C39.9826 29.6211 38.6029 32.9646 35.8435 35.718C33.0841 38.4714 29.7565 39.8482 25.8609 39.8482C21.9188 39.8482 18.5681 38.4714 15.8087 35.718C13.0493 32.9646 11.6696 29.6211 11.6696 25.6876C11.6696 21.7542 13.0493 18.3991 15.8087 15.6226C18.5681 12.846 21.9188 11.4577 25.8609 11.4577C29.7565 11.4577 33.0841 12.846 35.8435 15.6226C38.6029 18.3991 39.9826 21.7542 39.9826 25.6876ZM38.5913 25.6876C38.5913 22.1706 37.3507 19.1627 34.8696 16.6638C32.3884 14.1649 29.3855 12.9154 25.8609 12.9154C22.3362 12.9154 19.3217 14.1533 16.8174 16.6291C14.313 19.1048 13.0609 22.1244 13.0609 25.6876C13.0609 29.2046 14.313 32.2126 16.8174 34.7115C19.3217 37.2104 22.3362 38.4599 25.8609 38.4599C29.3855 38.4599 32.3884 37.2104 34.8696 34.7115C37.3507 32.2126 38.5913 29.2046 38.5913 25.6876ZM25.8609 32.1432C24.0522 32.1432 22.5217 31.5069 21.2696 30.2343C20.0174 28.9617 19.3913 27.4461 19.3913 25.6876C19.3913 23.8829 20.0174 22.3557 21.2696 21.1063C22.5217 19.8568 24.0522 19.209 25.8609 19.1627C27.6232 19.209 29.1304 19.8568 30.3826 21.1063C31.6348 22.3557 32.2841 23.8829 32.3304 25.6876C32.2841 27.4461 31.6348 28.9617 30.3826 30.2343C29.1304 31.5069 27.6232 32.1432 25.8609 32.1432ZM30.8696 25.6876C30.8696 24.2993 30.3826 23.1077 29.4087 22.1128C28.4348 21.1179 27.2522 20.6204 25.8609 20.6204C24.4696 20.6204 23.2754 21.1179 22.2783 22.1128C21.2812 23.1077 20.7826 24.2993 20.7826 25.6876C20.7826 27.0759 21.2812 28.256 22.2783 29.2278C23.2754 30.1996 24.4696 30.6855 25.8609 30.6855C27.2522 30.6855 28.4348 30.1996 29.4087 29.2278C30.3826 28.256 30.8696 27.0759 30.8696 25.6876ZM28.2957 33.3232V36.4469C32.9333 35.3825 35.7159 32.4671 36.6435 27.7007H33.513C33.0493 28.9964 32.3652 30.1649 31.4609 31.2061C30.5565 32.2473 29.5014 32.953 28.2957 33.3232ZM40.4696 33.9479C40.0058 33.9479 39.6232 34.0983 39.3217 34.3991C39.0203 34.6999 38.8696 35.0817 38.8696 35.5445C38.8696 35.961 39.0203 36.3196 39.3217 36.6204C39.6232 36.9212 40.0058 37.0716 40.4696 37.0716C40.887 37.0716 41.2464 36.9212 41.5478 36.6204C41.8493 36.3196 42 35.961 42 35.5445C42 35.0817 41.8493 34.6999 41.5478 34.3991C41.2464 34.0983 40.887 33.9479 40.4696 33.9479ZM36.6435 37.974C36.087 37.974 35.6116 38.1706 35.2174 38.564C34.8232 38.9573 34.6261 39.4317 34.6261 39.987C34.6261 40.5423 34.8232 41.0166 35.2174 41.41C35.6116 41.8033 36.087 42 36.6435 42C37.2 42 37.6754 41.8033 38.0696 41.41C38.4638 41.0166 38.6609 40.5423 38.6609 39.987C38.6609 39.4317 38.4638 38.9573 38.0696 38.564C37.6754 38.1706 37.2 37.974 36.6435 37.974ZM39.9826 28.8113C39.3333 28.8113 39.0087 29.1352 39.0087 29.7831C39.0087 30.3847 39.3333 30.6855 39.9826 30.6855C40.5855 30.6855 40.887 30.3847 40.887 29.7831C40.887 29.1352 40.5855 28.8113 39.9826 28.8113ZM12.1565 39.5011C11.5072 39.5011 11.1826 39.825 11.1826 40.4729C11.1826 41.167 11.5072 41.5141 12.1565 41.5141C12.4348 41.5141 12.6783 41.41 12.887 41.2017C13.0957 40.9935 13.2 40.7505 13.2 40.4729C13.2 39.825 12.8522 39.5011 12.1565 39.5011ZM11.8783 34.1562C11.229 34.1562 10.9043 34.4801 10.9043 35.128C10.9043 35.7759 11.229 36.0998 11.8783 36.0998C12.1101 36.0998 12.3304 36.0072 12.5391 35.8221C12.7478 35.637 12.8522 35.4056 12.8522 35.128C12.8522 34.8503 12.7478 34.6189 12.5391 34.4338C12.3304 34.2487 12.1101 34.1562 11.8783 34.1562ZM15.0087 36.5857C14.6377 36.5857 14.3246 36.7245 14.0696 37.0022C13.8145 37.2798 13.687 37.5806 13.687 37.9046C13.687 38.2285 13.8145 38.5293 14.0696 38.8069C14.3246 39.0846 14.6377 39.2234 15.0087 39.2234C15.3797 39.2234 15.6928 39.0846 15.9478 38.8069C16.2029 38.5293 16.3304 38.2285 16.3304 37.9046C16.3304 37.5806 16.2029 37.2798 15.9478 37.0022C15.6928 36.7245 15.3797 36.5857 15.0087 36.5857ZM40.4696 17.0108C40.0058 17.0108 39.7739 17.2422 39.7739 17.705C39.7739 18.1215 40.0058 18.3297 40.4696 18.3297C40.9333 18.3297 41.1652 18.1215 41.1652 17.705C41.1652 17.2422 40.9333 17.0108 40.4696 17.0108ZM11.113 14.1649C10.371 14.1649 10 14.5582 10 15.3449C10 16.0853 10.371 16.4555 11.113 16.4555C11.8551 16.4555 12.2261 16.0853 12.2261 15.3449C12.2261 14.5582 11.8551 14.1649 11.113 14.1649ZM13.687 10C13.3159 10 12.9913 10.1388 12.713 10.4165C12.4348 10.6941 12.2957 11.0412 12.2957 11.4577C12.2957 11.8279 12.4348 12.1518 12.713 12.4295C12.9913 12.7072 13.3159 12.846 13.687 12.846C14.1043 12.846 14.4522 12.7072 14.7304 12.4295C15.0087 12.1518 15.1478 11.8279 15.1478 11.4577C15.1478 11.0412 15.0087 10.6941 14.7304 10.4165C14.4522 10.1388 14.1043 10 13.687 10ZM11.4609 18.8156C10.9971 18.8156 10.7652 19.0701 10.7652 19.5792C10.7652 20.0419 10.9971 20.2733 11.4609 20.2733C11.971 20.2733 12.2261 20.0419 12.2261 19.5792C12.2261 19.0701 11.971 18.8156 11.4609 18.8156Z" fill="#251C1C"/>
</svg>
